<svg width="132" height="18" viewBox="0 0 132 18" fill="none" xmlns="http://www.w3.org/2000/svg">
<path d="M50.3504 10.3619C50.9854 11.0895 51.3034 12.0341 51.3034 13.1946C51.3034 14.6323 50.7793 15.7374 49.731 16.5136C48.6818 17.2899 47.1231 17.6741 45.0606 17.6741H37.51V0.727748H44.5783C46.4161 0.727748 47.8504 1.10129 48.8744 1.85323C49.8983 2.60517 50.4127 3.6752 50.4127 5.0604C50.4127 6.02927 50.1569 6.84346 49.6503 7.50494C49.1437 8.16641 48.4514 8.64112 47.5811 8.93197C48.7868 9.15862 49.7135 9.63819 50.3495 10.3619H50.3504ZM38.743 1.79097V8.54676H44.5287C46.0136 8.54676 47.1542 8.2598 47.9545 7.68684C48.7547 7.11292 49.1534 6.27051 49.1534 5.15476C49.1534 4.05652 48.7547 3.22092 47.9545 2.647C47.1532 2.07307 46.0136 1.78708 44.5278 1.78708H38.742V1.79097H38.743ZM48.8005 15.751C49.6464 15.1771 50.0723 14.2919 50.0723 13.1002C50.0723 11.9037 49.6493 11.0263 48.8005 10.4602C47.9545 9.89694 46.7059 9.61387 45.0597 9.61387H38.743V16.6109H45.0597C46.7059 16.6109 47.9535 16.3249 48.7995 15.751H48.8005ZM65.1755 5.03608V17.6741H64.0145V14.964C63.6169 15.8266 62.9673 16.5483 62.1514 17.0341C61.3297 17.5272 60.3622 17.7724 59.2469 17.7724C57.5996 17.7724 56.3102 17.3103 55.3728 16.3911C54.4364 15.4708 53.9677 14.1459 53.9677 12.4222V5.03608H55.1774V12.324C55.1774 13.7442 55.5411 14.824 56.2674 15.5691C56.9948 16.3142 58.0197 16.6809 59.3402 16.6809C60.7599 16.6809 61.8859 16.2374 62.7173 15.3483C63.5497 14.4611 63.9659 13.2685 63.9659 11.7646V5.03608H65.1755ZM69.4093 17.3103C68.4894 17.0029 67.7689 16.6187 67.2555 16.1498L67.8107 15.181C68.328 15.6187 68.9922 15.9786 69.807 16.2724C70.6219 16.5623 71.4747 16.7092 72.3586 16.7092C73.6353 16.7092 74.5756 16.499 75.1805 16.0798C75.7843 15.6605 76.0887 15.0798 76.0887 14.3347C76.0887 13.8035 75.9243 13.3833 75.5928 13.0759C75.2427 12.7584 74.8241 12.526 74.3695 12.3969C73.8862 12.251 73.2153 12.1002 72.3586 11.9358C71.359 11.7569 70.5519 11.5652 69.9402 11.3551C69.3392 11.1524 68.7984 10.8026 68.3669 10.3376C67.9293 9.86873 67.7135 9.22574 67.7135 8.39987C67.7135 7.39988 68.1287 6.57109 68.961 5.9174C69.7934 5.26371 70.9739 4.93784 72.5054 4.93784C73.3125 4.93784 74.1099 5.0497 74.9004 5.27733C75.691 5.50495 76.3366 5.80262 76.8374 6.17226L76.2812 7.14113C75.745 6.76052 75.1478 6.4743 74.5154 6.29483C73.8545 6.10203 73.1695 6.00442 72.4811 6.00495C71.3035 6.00495 70.4157 6.22187 69.8168 6.65864C69.2197 7.09638 68.9221 7.66933 68.9221 8.37945C68.9221 8.94559 69.0904 9.38236 69.4297 9.69753C69.7873 10.023 70.2138 10.2634 70.6773 10.4008C71.1703 10.5545 71.8588 10.7189 72.7475 10.8969C73.7297 11.075 74.527 11.2646 75.1309 11.467C75.7357 11.6703 76.2491 11.9952 76.6692 12.4465C77.0883 12.8969 77.2983 13.5195 77.2983 14.3103C77.2983 15.359 76.8608 16.1985 75.9914 16.8278C75.1211 17.4572 73.894 17.7714 72.3139 17.7714C71.3268 17.7764 70.3454 17.6207 69.4083 17.3103H69.4093ZM79.3822 1.68299C79.2882 1.59475 79.2138 1.48778 79.1637 1.36899C79.1136 1.25019 79.089 1.12221 79.0914 0.99331C79.0914 0.720939 79.1896 0.486504 79.3822 0.290008C79.4733 0.196355 79.5825 0.122327 79.7033 0.072476C79.824 0.0226249 79.9536 -0.00199614 80.0842 0.000126444C80.3565 0.000126444 80.5918 0.0944838 80.7873 0.28028C80.9798 0.465104 81.077 0.695647 81.077 0.968991C81.0789 1.0996 81.0541 1.22921 81.0043 1.34995C80.9545 1.47069 80.8807 1.58003 80.7873 1.67132C80.6962 1.76527 80.5868 1.83955 80.4659 1.88957C80.3449 1.9396 80.2151 1.9643 80.0842 1.96217C79.8081 1.96217 79.5737 1.86782 79.3822 1.68202V1.68299ZM79.4765 5.03608H80.6861V17.6741H79.4765V5.03608ZM94.533 6.31915C95.4519 7.23938 95.9138 8.56427 95.9138 10.288V17.6741H94.7041V10.3862C94.7041 8.96602 94.3444 7.88626 93.6267 7.14113C92.9111 6.39989 91.9036 6.02927 90.6143 6.02927C89.1284 6.02927 87.9596 6.47284 87.1039 7.36194C86.2482 8.25007 85.8204 9.44267 85.8204 10.9456V17.677H84.6117V5.03706H85.7727V7.77147C86.1962 6.89683 86.875 6.1713 87.7195 5.69075C88.5829 5.19075 89.604 4.93881 90.7825 4.93881C92.3616 4.93881 93.6131 5.40087 94.533 6.32012V6.31915ZM110.41 11.645H99.5418C99.5739 12.6314 99.8257 13.5059 100.293 14.2714C100.751 15.0275 101.408 15.6433 102.192 16.0516C102.993 16.4718 103.891 16.6809 104.891 16.6809C105.675 16.6881 106.453 16.5359 107.177 16.2335C107.863 15.9479 108.467 15.4947 108.932 14.9154L109.634 15.7131C109.078 16.3813 108.368 16.9044 107.565 17.2374C106.711 17.5971 105.793 17.7779 104.867 17.7685C103.607 17.7685 102.485 17.4922 101.503 16.9475C100.537 16.4176 99.737 15.6296 99.1927 14.6712C98.6365 13.7014 98.3574 12.5963 98.3574 11.3512C98.3574 10.1246 98.619 9.02244 99.1441 8.04676C99.642 7.09947 100.392 6.30808 101.311 5.75981C102.23 5.21118 103.261 4.93784 104.409 4.93784C105.555 4.93784 106.583 5.20729 107.495 5.74911C108.407 6.29083 109.153 7.07374 109.649 8.01174C110.173 8.98061 110.435 10.0788 110.435 11.3065L110.41 11.645ZM102.01 6.5993C101.301 6.99275 100.712 7.5701 100.304 8.2705C99.8773 8.98742 99.6293 9.7987 99.5671 10.7043H109.246C109.198 9.80259 108.956 8.99423 108.519 8.28509C108.098 7.5896 107.506 7.01382 106.8 6.61292C106.09 6.21117 105.29 6.00787 104.405 6.00787C103.521 6.00787 102.72 6.20436 102.01 6.5993ZM113.29 17.3103C112.372 17.0029 111.651 16.6187 111.138 16.1498L111.694 15.181C112.211 15.6187 112.875 15.9786 113.689 16.2724C114.504 16.5623 115.357 16.7092 116.242 16.7092C117.517 16.7092 118.458 16.499 119.063 16.0798C119.667 15.6605 119.972 15.0798 119.972 14.3347C119.972 13.8035 119.807 13.3833 119.475 13.0759C119.125 12.7582 118.706 12.5258 118.252 12.3969C117.769 12.251 117.097 12.1002 116.242 11.9358C115.242 11.7569 114.434 11.5652 113.822 11.3551C113.221 11.1522 112.681 10.8024 112.249 10.3376C111.812 9.86873 111.596 9.22574 111.596 8.39987C111.596 7.39988 112.012 6.57109 112.843 5.9174C113.676 5.26371 114.857 4.93784 116.388 4.93784C117.196 4.93784 117.993 5.0497 118.783 5.27733C119.573 5.50495 120.22 5.80262 120.72 6.17226L120.163 7.14113C119.627 6.76065 119.031 6.47444 118.398 6.29483C117.738 6.10207 117.053 6.00446 116.364 6.00495C115.186 6.00495 114.298 6.22187 113.7 6.65864C113.102 7.09638 112.805 7.66933 112.805 8.37945C112.805 8.94559 112.972 9.38236 113.312 9.69753C113.651 10.0127 114.067 10.2462 114.559 10.4008C115.052 10.5545 115.742 10.7189 116.63 10.8969C117.612 11.075 118.409 11.2646 119.014 11.467C119.619 11.6703 120.132 11.9952 120.551 12.4465C120.971 12.8969 121.18 13.5195 121.18 14.3103C121.18 15.359 120.744 16.1985 119.874 16.8278C119.003 17.4572 117.776 17.7714 116.196 17.7714C115.209 17.7763 114.228 17.6206 113.29 17.3103ZM123.674 17.3103C122.754 17.0029 122.034 16.6187 121.52 16.1498L122.076 15.181C122.593 15.6187 123.257 15.9786 124.072 16.2724C124.886 16.5623 125.739 16.7092 126.624 16.7092C127.9 16.7092 128.84 16.499 129.445 16.0798C130.05 15.6605 130.354 15.0798 130.354 14.3347C130.354 13.8035 130.19 13.3833 129.857 13.0759C129.507 12.7582 129.088 12.5258 128.634 12.3969C128.151 12.251 127.481 12.1002 126.624 11.9358C125.624 11.7569 124.816 11.5652 124.205 11.3551C123.604 11.1522 123.063 10.8024 122.631 10.3376C122.195 9.86873 121.978 9.22574 121.978 8.39987C121.978 7.39988 122.394 6.57109 123.226 5.9174C124.058 5.26371 125.239 4.93784 126.771 4.93784C127.578 4.93784 128.375 5.0497 129.166 5.27733C129.955 5.50495 130.602 5.80262 131.102 6.17226L130.547 7.14113C130.01 6.76047 129.413 6.47425 128.781 6.29483C128.12 6.102 127.435 6.00439 126.746 6.00495C125.568 6.00495 124.68 6.22187 124.082 6.65864C123.485 7.09638 123.187 7.66933 123.187 8.37945C123.187 8.94559 123.356 9.38236 123.694 9.69753C124.033 10.0127 124.45 10.2462 124.943 10.4008C125.436 10.5545 126.124 10.7189 127.012 10.8969C127.994 11.075 128.791 11.2646 129.396 11.467C130.001 11.6703 130.514 11.9952 130.934 12.4465C131.354 12.8969 131.564 13.5195 131.564 14.3103C131.564 15.359 131.126 16.1985 130.256 16.8278C129.385 17.4572 128.158 17.7714 126.578 17.7714C125.591 17.7764 124.61 17.6207 123.674 17.3103ZM11.3546 12.0963C10.7906 12.5922 10.0635 12.8624 9.3126 12.8551C8.32076 12.8551 7.5127 12.5088 6.89329 11.8172C6.27484 11.1246 5.96757 10.2189 5.96757 9.09929C5.96757 7.97381 6.27484 7.06039 6.89037 6.36876C7.50589 5.67616 8.31298 5.32986 9.3126 5.32986C10.0399 5.32986 10.6973 5.55651 11.2846 6.01468C11.8719 6.47284 12.2871 7.0779 12.5293 7.82984H18.2479C17.9513 5.5497 16.9789 3.71022 15.3356 2.30458C13.6922 0.898953 11.6755 0.19565 9.28829 0.19565C7.51853 0.19565 5.92576 0.576971 4.50995 1.33961C3.12905 2.06998 1.97984 3.17211 1.19215 4.5215C0.398681 5.87849 0 7.40377 0 9.09637C0 10.789 0.398681 12.3133 1.19215 13.6703C1.98562 15.0302 3.09026 16.0905 4.50995 16.8521C5.92576 17.6148 7.51951 17.9961 9.28829 17.9961C11.7144 17.9961 13.7593 17.2685 15.4163 15.8103C17.0771 14.3561 18.0379 12.4495 18.3043 10.1032H12.504C12.3221 10.9251 11.9381 11.5895 11.3546 12.0973V12.0963ZM28.1342 13.1596C27.7287 13.5652 27.2007 13.7685 26.5541 13.7685C25.9074 13.7685 25.3833 13.5652 24.9769 13.1596C24.5714 12.7539 24.3691 12.2257 24.3691 11.5827C24.3691 10.9358 24.5714 10.4038 24.9769 9.9913C25.3833 9.57885 25.9103 9.36874 26.5541 9.36874C27.2007 9.36874 27.7248 9.57496 28.1342 9.9913C28.5397 10.4038 28.742 10.9349 28.742 11.5827C28.742 12.2296 28.5397 12.7539 28.1342 13.1596ZM31.9372 7.46603C30.8122 6.4067 29.3575 5.87557 27.5751 5.87557C27.3932 5.87557 27.1443 5.88238 26.8302 5.89989L29.9827 0.762767H24.3516L21.6843 5.11682C20.9288 6.35125 20.3736 7.49035 20.0128 8.52925C19.6599 9.52567 19.4768 10.5743 19.4712 11.6314C19.4712 13.5127 20.1285 15.0448 21.4432 16.2267C22.7579 17.4086 24.4595 18 26.558 18C28.6797 18 30.3892 17.4125 31.6854 16.2335C32.9826 15.0555 33.6302 13.5059 33.6302 11.5827C33.6253 9.89986 33.0633 8.52633 31.9382 7.46603H31.9372Z" fill="white"/>
</svg>
