<svg width="120" height="24" viewBox="0 0 120 24" fill="none" xmlns="http://www.w3.org/2000/svg">
<path fill-rule="evenodd" clip-rule="evenodd" d="M15.034 16.045C15.812 15.364 16.319 14.469 16.558 13.361H24.238C23.886 16.528 22.611 19.092 20.414 21.055C18.216 23.018 15.51 24 12.298 24C9.955 24 7.846 23.485 5.97 22.456C4.094 21.427 2.63 19.997 1.578 18.166C0.526 16.335 0 14.28 0 12C0 9.72 0.526 7.665 1.578 5.834C2.63 4.003 4.094 2.573 5.97 1.544C7.846 0.514 9.955 0 12.298 0C15.459 0 18.128 0.947 20.305 2.842C22.481 4.736 23.767 7.219 24.16 10.29H16.59C16.269 9.277 15.72 8.462 14.942 7.844C14.165 7.227 13.294 6.918 12.33 6.918C11.003 6.918 9.933 7.385 9.12 8.319C8.305 9.253 7.899 10.48 7.899 11.999C7.899 13.509 8.309 14.731 9.127 15.665C9.947 16.599 11.013 17.065 12.33 17.065C13.356 17.065 14.258 16.725 15.035 16.045H15.034ZM42.294 9.805C43.785 11.235 44.531 13.085 44.531 15.352C44.531 17.944 43.673 20.034 41.956 21.62C40.238 23.207 37.976 24 35.166 24C32.39 24 30.133 23.204 28.394 21.612C26.654 20.019 25.785 17.956 25.785 15.419C25.785 14.034 26.024 12.64 26.501 11.238C26.978 9.836 27.716 8.302 28.715 6.638L32.245 0.768L39.705 0.767L35.528 7.693C35.945 7.671 36.274 7.66 36.516 7.66C38.875 7.66 40.8 8.375 42.293 9.805H42.294ZM37.257 17.48C37.794 16.933 38.063 16.224 38.063 15.352C38.063 14.481 37.794 13.766 37.257 13.207C36.719 12.648 36.022 12.369 35.167 12.369C34.311 12.369 33.613 12.649 33.077 13.207C32.538 13.766 32.27 14.481 32.27 15.352C32.27 16.224 32.538 16.933 33.076 17.48C33.613 18.028 34.311 18.302 35.166 18.302C36.022 18.302 36.719 18.028 37.256 17.48H37.257ZM58.516 10.96C61.166 11.744 62.84 14.089 62.84 17.12C62.84 18.795 62.262 20.25 61.122 21.445C59.989 22.631 58.568 23.233 56.898 23.233H49.672C49.6587 23.2329 49.6456 23.2301 49.6334 23.2249C49.6212 23.2197 49.6102 23.2122 49.6009 23.2027C49.5916 23.1932 49.5843 23.182 49.5793 23.1697C49.5743 23.1574 49.5719 23.1443 49.572 23.131V0.869C49.572 0.813 49.616 0.767 49.672 0.767H56.037C57.584 0.767 58.861 1.284 59.83 2.305C60.826 3.285 61.334 4.595 61.334 6.192C61.334 8.334 60.271 10.1 58.516 10.96ZM60.516 20.872C61.532 19.837 62.026 18.61 62.026 17.119C62.026 15.463 61.519 14.106 60.519 13.088C59.484 12.035 58.209 11.522 56.621 11.522H50.387V22.403H56.897C58.329 22.403 59.547 21.888 60.516 20.873V20.872ZM50.386 1.597V10.693H56.037C57.359 10.693 58.442 10.271 59.258 9.44C60.095 8.588 60.519 7.495 60.519 6.192C60.519 3.486 58.676 1.597 56.037 1.597H50.387H50.386ZM119.981 23.072C119.992 23.087 119.998 23.1047 120 23.1232C120.001 23.1416 119.997 23.1601 119.989 23.1766C119.981 23.1931 119.968 23.207 119.952 23.2168C119.937 23.2266 119.919 23.2318 119.9 23.232H119.142C119.126 23.2321 119.11 23.2283 119.095 23.2208C119.081 23.2133 119.068 23.2024 119.059 23.189L110.96 11.624L107.383 15.83V23.13C107.383 23.1433 107.381 23.1566 107.376 23.169C107.371 23.1815 107.364 23.1928 107.354 23.2024C107.345 23.2119 107.334 23.2196 107.322 23.2248C107.31 23.2301 107.296 23.2329 107.283 23.233H106.681C106.668 23.2329 106.655 23.2301 106.642 23.2249C106.63 23.2197 106.619 23.2122 106.61 23.2027C106.601 23.1932 106.593 23.182 106.588 23.1697C106.583 23.1574 106.581 23.1443 106.581 23.131V0.869C106.581 0.813 106.626 0.767 106.681 0.767H107.283C107.338 0.767 107.383 0.813 107.383 0.869V14.593L119 0.803C119.009 0.791764 119.021 0.782723 119.035 0.776505C119.048 0.770288 119.062 0.767044 119.077 0.767H119.873C119.929 0.767 119.974 0.813 119.974 0.869C119.974 0.894 119.964 0.917 119.95 0.935L111.499 10.967L119.981 23.072ZM101.496 0.767C101.551 0.767 101.596 0.813 101.596 0.869V23.131C101.596 23.1443 101.594 23.1574 101.589 23.1697C101.584 23.182 101.576 23.1932 101.567 23.2027C101.558 23.2122 101.547 23.2197 101.535 23.2249C101.522 23.2301 101.509 23.2329 101.496 23.233H101.219C101.203 23.2331 101.187 23.2293 101.173 23.222C101.159 23.2147 101.147 23.204 101.138 23.191L86.558 2.591V23.131C86.5581 23.1443 86.5556 23.1574 86.5507 23.1697C86.5457 23.182 86.5384 23.1932 86.5291 23.2027C86.5198 23.2122 86.5088 23.2197 86.4966 23.2249C86.4844 23.2301 86.4713 23.2329 86.458 23.233H85.844C85.8307 23.2329 85.8176 23.2301 85.8054 23.2249C85.7932 23.2197 85.7822 23.2122 85.7729 23.2027C85.7636 23.1932 85.7563 23.182 85.7513 23.1697C85.7464 23.1574 85.7439 23.1443 85.744 23.131V0.869C85.744 0.813 85.789 0.767 85.844 0.767H86.234C86.2497 0.767231 86.2651 0.771153 86.279 0.778449C86.2929 0.785746 86.3049 0.796212 86.314 0.809L100.781 21.249V0.87C100.781 0.814 100.826 0.768 100.881 0.768H101.496V0.767ZM82.118 23.095C82.124 23.1103 82.1262 23.1269 82.1244 23.1432C82.1226 23.1596 82.1168 23.1753 82.1075 23.1889C82.0982 23.2025 82.0858 23.2136 82.0712 23.2213C82.0567 23.229 82.0405 23.233 82.024 23.233H81.386C81.3652 23.2328 81.345 23.2262 81.3281 23.214C81.3113 23.2018 81.2987 23.1847 81.292 23.165L78.74 16.282H68.337L65.786 23.167C65.779 23.1863 65.7662 23.203 65.7494 23.2148C65.7326 23.2267 65.7126 23.233 65.692 23.233H65.053C65.0365 23.2329 65.0203 23.2288 65.0057 23.221C64.9912 23.2131 64.9788 23.2019 64.9696 23.1882C64.9605 23.1745 64.9548 23.1587 64.9531 23.1423C64.9514 23.1259 64.9538 23.1093 64.96 23.094L73.25 0.833C73.257 0.813673 73.2698 0.796968 73.2866 0.785159C73.3034 0.773349 73.3234 0.767009 73.344 0.767H73.732C73.7528 0.766875 73.7732 0.773265 73.7902 0.785278C73.8073 0.79729 73.8201 0.814325 73.827 0.834L82.117 23.095H82.118ZM68.636 15.452H78.442L73.54 2.369L68.637 15.452H68.636Z" fill="#242424"/>
</svg>
